<svg width="32" height="32" viewBox="0 0 32 32" fill="none" xmlns="http://www.w3.org/2000/svg">
<path d="M25.9651 4H5.19317C3.76121 4 2.59668 5.196 2.59668 6.66667V25.3333C2.59668 26.804 3.76121 28 5.19317 28H25.9651C27.3971 28 28.5616 26.804 28.5616 25.3333V6.66667C28.5616 5.196 27.3971 4 25.9651 4ZM25.9664 12C25.9651 12 25.9651 12 25.9664 12H25.3614L21.899 6.66667H25.9651L25.9664 12ZM18.8702 12L15.4078 6.66667H18.778L22.2404 12H18.8702ZM15.7492 12H12.379L8.91784 6.66667H12.2881L15.7492 12ZM5.19317 6.66667H5.79686L9.25928 12H5.19317V6.66667Z" fill="white"/>
</svg>
